Coordinates
version=1
nRows=14
nColumns=40
inDegrees=yes

Units are S.I. units (second, meters, Newtons, ...)
Angles are in degrees.

endheader
time	pelvis_tilt	pelvis_list	pelvis_rotation	pelvis_tx	pelvis_ty	pelvis_tz	hip_flexion_r	hip_adduction_r	hip_rotation_r	knee_angle_r	knee_angle_r_beta	ankle_angle_r	subtalar_angle_r	mtp_angle_r	hip_flexion_l	hip_adduction_l	hip_rotation_l	knee_angle_l	knee_angle_l_beta	ankle_angle_l	subtalar_angle_l	mtp_angle_l	lumbar_extension	lumbar_bending	lumbar_rotation	arm_flex_r	arm_add_r	arm_rot_r	elbow_flex_r	pro_sup_r	wrist_flex_r	wrist_dev_r	arm_flex_l	arm_add_l	arm_rot_l	elbow_flex_l	pro_sup_l	wrist_flex_l	wrist_dev_l
     41.54000000	     -1.88144886	     -4.26909758	      2.46620642	      1.07467302	      0.93424749	      0.39521576	     27.97927868	     -6.75540630	     -5.67382707	     62.21219173	     62.21219173	      1.17214723	    -13.30906517	     -0.85755243	     15.14278320	     -5.30549591	     -8.18426089	     21.93907468	     21.93907468	     11.42427164	     -7.58852083	     -3.48525583	    -10.03018875	      2.89592278	      1.75282860	     10.96862541	    -13.03550018	     -1.03522368	     44.44907898	     45.82392735	      0.00000000	      0.00000000	     15.10704426	    -14.52785866	     -6.09915169	     44.68223161	     45.65685792	      0.00000000	      0.00000000
     41.55357143	     -1.87686901	     -4.46101203	      2.05290439	      1.07372227	      0.93483377	      0.39506060	     28.59413376	     -6.48721133	     -5.64405242	     60.28365999	     60.28365999	      1.21318518	    -13.03160768	     -0.88386197	     14.56852716	     -5.51929520	     -8.39257466	     21.61824500	     21.61824500	     11.59919033	     -7.71261434	     -3.51427530	    -10.15123278	      3.13092686	      1.91431703	      9.33604140	    -13.25048934	     -0.95821726	     43.15125284	     45.85676812	      0.00000000	      0.00000000	     15.98842163	    -14.66472336	     -6.28778490	     45.63734294	     45.70176644	      0.00000000	      0.00000000
     41.56714286	     -1.84207102	     -4.55031219	      1.56790402	      1.07274088	      0.93537792	      0.39498468	     29.09414903	     -6.26109927	     -5.50758834	     58.17537373	     58.17537373	      1.16413812	    -12.73133562	     -1.12532059	     13.94335005	     -5.62632389	     -8.69483304	     21.29698598	     21.29698598	     11.75019785	     -7.94782227	     -3.60571668	    -10.35846772	      3.22585513	      2.24003296	      7.85195197	    -13.44907998	     -0.95190342	     41.21762840	     45.91739838	      0.00000000	      0.00000000	     16.85174193	    -14.82811006	     -6.54282992	     47.14173294	     45.76264858	      0.00000000	      0.00000000
     41.58071429	     -1.87883335	     -4.68371862	      1.15982628	      1.07171727	      0.93577978	      0.39487032	     29.47643813	     -6.02220558	     -5.52583448	     55.71681848	     55.71681848	      0.71950210	    -12.54731659	     -2.35043766	     13.41476154	     -5.74391871	     -8.84318387	     20.93969837	     20.93969837	     11.66058200	     -8.33823602	     -4.05376339	    -10.43979279	      3.37570528	      1.53254083	      7.74378807	    -12.96111583	     -1.46547943	     37.14454796	     46.08479149	      0.00000000	      0.00000000	     16.53158802	    -15.50490428	     -7.17956430	     49.92279634	     45.90358327	      0.00000000	      0.00000000
     41.59428571	     -1.92152924	     -4.83965524	      0.72581245	      1.07069613	      0.93609432	      0.39487801	     29.77649512	     -5.72704769	     -5.55284113	     53.09419531	     53.09419531	      0.78116139	    -11.98564107	     -2.18505819	     12.93215686	     -5.90882909	     -9.04138574	     20.68333363	     20.68333363	     11.84667907	     -8.53942259	     -4.05080326	    -10.56805914	      3.58158955	      1.76767889	      6.24872772	    -13.24071185	     -1.45736883	     35.95848007	     46.11792668	      0.00000000	      0.00000000	     17.37115914	    -15.64705199	     -7.45355449	     50.93816175	     45.95602855	      0.00000000	      0.00000000
     41.60785714	     -2.00546787	     -4.93674362	      0.31479398	      1.06965873	      0.93621304	      0.39493302	     29.97108855	     -5.47900549	     -5.59064201	     50.17031159	     50.17031159	      0.62637095	    -11.48546028	     -2.93655526	     12.51935610	     -5.99251489	     -9.16105715	     20.44282728	     20.44282728	     11.87110803	     -8.93019947	     -4.34430114	    -10.63226659	      3.70815731	      1.32655858	      5.94976957	    -12.95520017	     -2.20105931	     32.53876856	     46.27976937	      0.00000000	      0.00000000	     17.15008854	    -16.11382838	     -8.33198780	     53.72440669	     46.12025783	      0.00000000	      0.00000000
     41.62142857	     -2.26849523	     -4.87602002	     -0.13671175	      1.06843478	      0.93590041	      0.39518155	     30.35595271	     -5.33316156	     -5.51819735	     47.17167840	     47.17167840	      0.83209056	    -10.80067562	     -2.66056239	     12.40384241	     -5.96333234	     -9.50045526	     20.39682785	     20.39682785	     12.01051447	     -9.15679171	     -4.37208308	    -10.51188074	      3.67734094	      1.20261721	      4.66718827	    -13.08746019	     -2.21349032	     31.90066646	     46.29575498	      0.00000000	      0.00000000	     17.84589485	    -16.69338360	     -8.58590259	     54.26049529	     46.15753257	      0.00000000	      0.00000000
     41.63500000	     -2.27809809	     -5.12775878	     -0.54327214	      1.06754346	      0.93611014	      0.39541032	     30.09491773	     -4.95919105	     -5.90410797	     43.59011346	     43.59011346	      1.07890753	     -9.45183093	     -2.66476985	     11.87788355	     -6.22355379	     -9.60083384	     20.11755708	     20.11755708	     12.20349916	     -9.38965875	     -4.36718616	    -10.72105455	      4.04383441	      1.96217093	      3.13130533	    -13.55763342	     -2.33827467	     30.42672431	     46.35142459	      0.00000000	      0.00000000	     18.67788745	    -16.26064619	     -8.87162460	     56.13322442	     46.21995573	      0.00000000	      0.00000000
     41.64857143	     -2.51838771	     -5.11088775	     -0.96804148	      1.06655016	      0.93579238	      0.39582331	     30.00234199	     -4.76865370	     -6.12700929	     39.77664771	     39.77664771	      0.80178551	     -8.33188423	     -4.20099080	     11.63161361	     -6.20464669	     -9.78936262	     19.86712731	     19.86712731	     12.20436908	     -9.75906448	     -4.64489062	    -10.67103568	      4.03972560	      1.47050404	      2.95112561	    -13.24507064	     -3.83312680	     27.58716319	     46.56373435	      0.00000000	      0.00000000	     17.96995829	    -16.76307940	    -10.13047046	     59.81965395	     46.42383526	      0.00000000	      0.00000000
     41.66214286	     -2.80812067	     -5.16279878	     -1.36127690	      1.06561819	      0.93540166	      0.39638775	     29.81787033	     -4.44843631	     -6.40693466	     35.79928177	     35.79928177	      1.08663778	     -6.81980405	     -3.86658510	     11.48318895	     -6.29252212	     -9.99186373	     19.71426053	     19.71426053	     12.36131330	     -9.93367292	     -4.67689986	    -10.50574235	      4.18080986	      1.61934394	      1.67637620	    -13.44658006	     -3.94780774	     26.87031798	     46.59077553	      0.00000000	      0.00000000	     18.54916502	    -16.92220440	    -10.36749341	     60.73799769	     46.46551310	      0.00000000	      0.00000000
     41.67571429	     -2.94901910	     -5.02616830	     -1.75829045	      1.06493421	      0.93510041	      0.39695490	     29.34875763	     -4.40116017	     -6.98206103	     31.73045672	     31.73045672	      1.39704280	     -4.41125343	     -3.81622281	     11.09724749	     -6.16632848	    -10.28320079	     19.45933373	     19.45933373	     12.48462788	    -10.05311243	     -4.75873933	    -10.56428748	      4.07548113	      2.03247535	      0.40092846	    -13.62147340	     -4.43530007	     25.90083285	     46.65729051	      0.00000000	      0.00000000	     18.91411558	    -16.83357545	    -10.81786992	     63.07798390	     46.55263967	      0.00000000	      0.00000000
     41.68928571	     -3.22313499	     -4.98242932	     -2.10173836	      1.06428681	      0.93460754	      0.39778195	     28.85069827	     -4.08414736	     -7.43266900	     27.50502157	     27.50502157	      1.48962289	     -2.57411498	     -3.16911105	     10.90272883	     -6.16549750	    -10.48241570	     19.28073808	     19.28073808	     12.64356809	    -10.18764708	     -4.84893323	    -10.38748419	      4.11621961	      2.03908297	     -0.70901817	    -13.77533018	     -4.67932429	     25.34011740	     46.69025606	      0.00000000	      0.00000000	     19.18634746	    -17.04469334	    -11.09869826	     64.31501282	     46.60119837	      0.00000000	      0.00000000
     41.70285714	     -3.33958919	     -4.74716371	     -2.42242315	      1.06400485	      0.93419614	      0.39853993	     28.15938019	     -4.09234039	     -8.37005771	     23.58236802	     23.58236802	      1.86589403	      0.47301241	     -2.16634714	     10.40851865	     -5.92987700	    -10.80740370	     18.89203734	     18.89203734	     12.73037153	    -10.15238637	     -5.08598192	    -10.43064515	      3.90273963	      2.09663576	     -1.76351181	    -13.78472471	     -5.46544141	     24.79983725	     46.76613312	      0.00000000	      0.00000000	     19.00037195	    -17.13550059	    -11.72043702	     67.30016260	     46.71232921	      0.00000000	      0.00000000
     41.71642857	     -3.64269734	     -4.55140510	     -2.68607496	      1.06374762	      0.93343884	      0.39958024	     27.60238560	     -3.83099864	     -8.78050495	     19.80845906	     19.80845906	      1.80453601	      2.14788710	     -1.05181486	     10.21782335	     -5.77514036	    -11.03072278	     18.68532142	     18.68532142	     12.89712698	    -10.20583867	     -5.22841653	    -10.11472867	      3.81605394	      2.06544679	     -2.76281704	    -13.78275467	     -5.68208142	     24.43039822	     46.78957248	      0.00000000	      0.00000000	     19.23466170	    -17.34132316	    -11.98181988	     68.38355191	     46.75638154	      0.00000000	      0.00000000
